<?xml version="1.0" encoding="UTF-8"?>
<svg id="Calque_2" data-name="Calque 2" xmlns="http://www.w3.org/2000/svg" viewBox="0 0 444.15 112.12">
  <defs>
    <style>
      .cls-1 {
        fill: #fff;
      }
    </style>
  </defs>
  <g id="Calque_1-2" data-name="Calque 1">
    <g>
      <path class="cls-1" d="M59.48,96.83l-1.73,14.17H0L13.27,3h16.88l-11.55,93.83h40.87Z"/>
      <path class="cls-1" d="M125.93,96.83c-2.6,2.65-5.15,4.94-7.65,6.86-2.5,1.93-5.05,3.51-7.65,4.76-2.6,1.25-5.32,2.17-8.17,2.77s-5.95.9-9.3.9c-4.45,0-8.45-.75-12-2.25-3.55-1.5-6.59-3.61-9.11-6.34-2.53-2.72-4.46-6.02-5.81-9.9s-2.02-8.21-2.02-13.01c0-4,.42-7.94,1.27-11.81.85-3.87,2.09-7.56,3.71-11.06,1.62-3.5,3.6-6.74,5.93-9.71,2.32-2.97,4.97-5.54,7.95-7.69,2.97-2.15,6.25-3.84,9.83-5.06,3.57-1.22,7.41-1.84,11.51-1.84s7.37.56,10.27,1.69c2.9,1.12,5.31,2.58,7.24,4.35,1.92,1.78,3.36,3.74,4.31,5.89.95,2.15,1.43,4.25,1.43,6.3,0,3.35-.69,6.43-2.06,9.23-1.38,2.8-3.84,5.33-7.39,7.58-3.55,2.25-8.41,4.2-14.59,5.85-6.18,1.65-14.09,2.97-23.74,3.97-.05.3-.07.61-.07.94v1.01c0,6.35,1.37,11.14,4.12,14.36,2.75,3.22,6.87,4.84,12.38,4.84,3.45,0,6.32-.47,8.62-1.43,2.3-.95,4.26-1.99,5.89-3.11,1.62-1.12,3.05-2.16,4.28-3.11,1.22-.95,2.51-1.43,3.86-1.43,1.05,0,2.02.5,2.92,1.5l4.05,4.95ZM103.5,44.85c-2.8,0-5.39.58-7.76,1.73-2.38,1.15-4.5,2.74-6.38,4.76s-3.5,4.44-4.88,7.24c-1.38,2.8-2.44,5.85-3.19,9.15,6.9-.9,12.45-1.9,16.65-3,4.2-1.1,7.42-2.3,9.67-3.6,2.25-1.3,3.75-2.69,4.5-4.16.75-1.47,1.12-3.04,1.12-4.69,0-.8-.18-1.65-.52-2.55-.35-.9-.91-1.7-1.69-2.4-.78-.7-1.79-1.29-3.04-1.76-1.25-.47-2.75-.71-4.5-.71Z"/>
      <path class="cls-1" d="M158.55,51.83c3.95-6.2,8.37-10.84,13.27-13.91,4.9-3.08,9.95-4.61,15.15-4.61,3.2,0,6.05.64,8.55,1.91,2.5,1.27,4.55,3.15,6.15,5.62,1.6,2.48,2.7,5.51,3.3,9.11.6,3.6.62,7.72.07,12.38l-5.77,48.67h-16.05l5.77-48.67c.7-5.45.39-9.41-.94-11.89-1.33-2.48-3.71-3.71-7.16-3.71-2.2,0-4.46.63-6.79,1.88-2.32,1.25-4.55,3.01-6.67,5.29-2.13,2.28-4.11,5.02-5.96,8.25-1.85,3.23-3.38,6.81-4.58,10.76l-4.2,38.1h-16.05l9.15-76.65h8.1c1.75,0,3.09.44,4.01,1.31.92.88,1.39,2.24,1.39,4.09l-.75,12.08Z"/>
      <path class="cls-1" d="M292.35,0l-13.72,111h-8.48c-2.05,0-3.44-.52-4.16-1.57-.72-1.05-1.09-2.35-1.09-3.9l.98-13.05c-1.9,3-3.93,5.7-6.08,8.1-2.15,2.4-4.41,4.46-6.79,6.19-2.38,1.72-4.84,3.05-7.39,3.97-2.55.92-5.18,1.39-7.88,1.39-6.45,0-11.54-2.36-15.26-7.09-3.73-4.73-5.59-11.79-5.59-21.19,0-4.25.44-8.45,1.31-12.6.87-4.15,2.11-8.1,3.71-11.85,1.6-3.75,3.54-7.21,5.81-10.39,2.28-3.17,4.79-5.93,7.54-8.25,2.75-2.33,5.71-4.15,8.89-5.48,3.17-1.32,6.49-1.99,9.94-1.99s6.87.68,9.82,2.03c2.95,1.35,5.48,3.25,7.58,5.7l5.1-41.02h15.75ZM270.15,51.75c-1.8-2.2-3.91-3.74-6.34-4.61-2.43-.87-4.84-1.31-7.24-1.31-3.6,0-6.86,1.09-9.79,3.26-2.93,2.18-5.43,5-7.5,8.48-2.08,3.48-3.68,7.38-4.8,11.7s-1.69,8.64-1.69,12.94c0,5.65.98,9.9,2.93,12.75,1.95,2.85,4.67,4.27,8.17,4.27,2.2,0,4.45-.72,6.75-2.17,2.3-1.45,4.5-3.45,6.6-6,2.1-2.55,4.06-5.57,5.89-9.08,1.82-3.5,3.39-7.3,4.69-11.4l2.33-18.83Z"/>
      <path class="cls-1" d="M326.32,112.12c-4.2,0-8.08-.71-11.62-2.14-3.55-1.43-6.61-3.5-9.19-6.22-2.58-2.72-4.59-6.08-6.04-10.05-1.45-3.97-2.18-8.49-2.18-13.54,0-6.55,1.04-12.68,3.11-18.38,2.07-5.7,4.91-10.66,8.51-14.89,3.6-4.22,7.81-7.55,12.64-9.98,4.83-2.42,9.99-3.64,15.49-3.64,4.2,0,8.07.71,11.62,2.14,3.55,1.42,6.6,3.5,9.15,6.23,2.55,2.73,4.55,6.07,6,10.05,1.45,3.98,2.17,8.49,2.17,13.54,0,4.3-.48,8.45-1.42,12.45-.95,4-2.28,7.74-3.97,11.21-1.7,3.48-3.76,6.64-6.19,9.49-2.43,2.85-5.1,5.29-8.03,7.31-2.93,2.03-6.09,3.6-9.49,4.72s-6.93,1.69-10.57,1.69ZM327.75,99.52c3.35,0,6.4-.94,9.15-2.81s5.09-4.39,7.01-7.54c1.92-3.15,3.41-6.79,4.46-10.91s1.58-8.44,1.58-12.94c0-6.6-1.21-11.49-3.64-14.66-2.43-3.17-6.01-4.76-10.76-4.76-3.4,0-6.46.93-9.19,2.77-2.73,1.85-5.04,4.33-6.94,7.43-1.9,3.1-3.38,6.73-4.42,10.88-1.05,4.15-1.58,8.5-1.58,13.05,0,13,4.77,19.5,14.33,19.5Z"/>
      <path class="cls-1" d="M404.47,112.12c-4.2,0-8.08-.71-11.62-2.14-3.55-1.43-6.61-3.5-9.19-6.22s-4.59-6.08-6.04-10.05-2.17-8.49-2.17-13.54c0-6.55,1.04-12.68,3.11-18.38s4.91-10.66,8.51-14.89c3.6-4.22,7.81-7.55,12.64-9.98,4.82-2.42,9.99-3.64,15.49-3.64,4.2,0,8.07.71,11.62,2.14,3.55,1.42,6.6,3.5,9.15,6.23,2.55,2.73,4.55,6.07,6,10.05,1.45,3.98,2.18,8.49,2.18,13.54,0,4.3-.48,8.45-1.43,12.45s-2.28,7.74-3.97,11.21c-1.7,3.48-3.76,6.64-6.19,9.49s-5.1,5.29-8.03,7.31c-2.92,2.03-6.09,3.6-9.49,4.72-3.4,1.12-6.93,1.69-10.58,1.69ZM405.9,99.52c3.35,0,6.4-.94,9.15-2.81,2.75-1.88,5.09-4.39,7.01-7.54,1.92-3.15,3.41-6.79,4.46-10.91s1.57-8.44,1.57-12.94c0-6.6-1.21-11.49-3.64-14.66-2.43-3.17-6.01-4.76-10.76-4.76-3.4,0-6.46.93-9.19,2.77-2.73,1.85-5.04,4.33-6.94,7.43-1.9,3.1-3.38,6.73-4.43,10.88-1.05,4.15-1.57,8.5-1.57,13.05,0,13,4.77,19.5,14.32,19.5Z"/>
    </g>
  </g>
</svg>